<svg width="41" height="40" viewBox="0 0 41 40" fill="none" xmlns="http://www.w3.org/2000/svg">
<rect x="0.5" width="40" height="40" rx="12" fill="url(#paint0_linear_2252_13703)"/>
<g opacity="0.25" filter="url(#filter0_f_2252_13703)">
<rect x="6.5" y="20" width="27" height="17" rx="8.5" fill="url(#paint1_linear_2252_13703)"/>
</g>
<rect x="6.5" y="6" width="28" height="28" rx="12" fill="url(#paint2_linear_2252_13703)"/>
<g clip-path="url(#clip0_2252_13703)" filter="url(#filter1_i_2252_13703)">
<path d="M11.5 29.0005L12.7903 24.2028C11.7497 22.3339 11.4191 20.153 11.8591 18.0603C12.2992 15.9676 13.4804 14.1036 15.186 12.8102C16.8916 11.5168 19.0071 10.8809 21.1445 11.0191C23.2818 11.1572 25.2976 12.0603 26.8219 13.5624C28.3461 15.0646 29.2767 17.0652 29.4427 19.197C29.6087 21.3289 28.9992 23.449 27.7258 25.1683C26.4525 26.8877 24.6008 28.0909 22.5105 28.5573C20.4203 29.0237 18.2316 28.7219 16.3463 27.7072L11.5 29.0005ZM16.58 25.9119L16.8797 26.0894C18.2453 26.8975 19.8403 27.2319 21.4161 27.0405C22.992 26.8491 24.4601 26.1427 25.5918 25.0313C26.7235 23.9199 27.4552 22.466 27.6728 20.8961C27.8903 19.3262 27.5817 17.7286 26.7948 16.3521C26.0079 14.9757 24.7871 13.8978 23.3225 13.2864C21.8579 12.675 20.2319 12.5644 18.6978 12.9719C17.1637 13.3794 15.8078 14.2821 14.8412 15.5393C13.8747 16.7965 13.3518 18.3376 13.3542 19.9224C13.3529 21.2365 13.7169 22.5251 14.4057 23.6449L14.5937 23.9543L13.8723 26.6321L16.58 25.9119Z" fill="white"/>
<path fill-rule="evenodd" clip-rule="evenodd" d="M23.8537 21.1546C23.678 21.0131 23.4723 20.9135 23.2522 20.8634C23.0321 20.8133 22.8035 20.8141 22.5837 20.8655C22.2535 21.0024 22.0402 21.5197 21.8268 21.7784C21.7818 21.8404 21.7157 21.8839 21.6409 21.9007C21.5661 21.9175 21.4877 21.9065 21.4204 21.8697C20.2115 21.397 19.1983 20.5302 18.5452 19.41C18.4894 19.3401 18.4631 19.2513 18.4716 19.1624C18.4801 19.0735 18.5229 18.9913 18.5909 18.9333C18.8288 18.6981 19.0036 18.4068 19.0989 18.0863C19.12 17.7328 19.0389 17.3807 18.8652 17.072C18.7309 16.6392 18.4753 16.2538 18.1286 15.9613C17.9498 15.881 17.7515 15.8541 17.5577 15.8838C17.3639 15.9135 17.1829 15.9986 17.0364 16.1287C16.7821 16.3477 16.5803 16.6209 16.4458 16.9281C16.3113 17.2353 16.2475 17.5687 16.2592 17.9037C16.26 18.0919 16.2838 18.2792 16.3303 18.4616C16.4482 18.8997 16.6297 19.3183 16.8688 19.7041C17.0413 19.9997 17.2295 20.2858 17.4326 20.5612C18.0928 21.466 18.9226 22.2342 19.8761 22.8231C20.3546 23.1224 20.8659 23.3658 21.4001 23.5484C21.955 23.7995 22.5676 23.8959 23.173 23.8273C23.5179 23.7752 23.8447 23.6392 24.1246 23.4314C24.4045 23.2236 24.629 22.9503 24.7783 22.6355C24.866 22.4453 24.8926 22.2328 24.8545 22.0269C24.763 21.606 24.1992 21.3575 23.8537 21.1546Z" fill="white"/>
</g>
<defs>
<filter id="filter0_f_2252_13703" x="4.316" y="17.816" width="31.368" height="21.368" filterUnits="userSpaceOnUse" color-interpolation-filters="sRGB">
<feFlood flood-opacity="0" result="BackgroundImageFix"/>
<feBlend mode="normal" in="SourceGraphic" in2="BackgroundImageFix" result="shape"/>
<feGaussianBlur stdDeviation="1.092" result="effect1_foregroundBlur_2252_13703"/>
</filter>
<filter id="filter1_i_2252_13703" x="11.5" y="11" width="18" height="18.2" filterUnits="userSpaceOnUse" color-interpolation-filters="sRGB">
<feFlood flood-opacity="0" result="BackgroundImageFix"/>
<feBlend mode="normal" in="SourceGraphic" in2="BackgroundImageFix" result="shape"/>
<feColorMatrix in="SourceAlpha" type="matrix" values="0 0 0 0 0 0 0 0 0 0 0 0 0 0 0 0 0 0 127 0" result="hardAlpha"/>
<feOffset dy="0.2"/>
<feGaussianBlur stdDeviation="0.5"/>
<feComposite in2="hardAlpha" operator="arithmetic" k2="-1" k3="1"/>
<feColorMatrix type="matrix" values="0 0 0 0 0 0 0 0 0 0 0 0 0 0 0 0 0 0 0.1 0"/>
<feBlend mode="normal" in2="shape" result="effect1_innerShadow_2252_13703"/>
</filter>
<linearGradient id="paint0_linear_2252_13703" x1="3.86245" y1="2.62009" x2="33.5568" y2="40" gradientUnits="userSpaceOnUse">
<stop stop-color="#FBFBFC"/>
<stop offset="1" stop-color="#DBDDE8"/>
</linearGradient>
<linearGradient id="paint1_linear_2252_13703" x1="21.866" y1="37.507" x2="16.2869" y2="17.987" gradientUnits="userSpaceOnUse">
<stop stop-color="#00D95F"/>
<stop offset="1" stop-color="#07FF74"/>
</linearGradient>
<linearGradient id="paint2_linear_2252_13703" x1="22.4351" y1="34.835" x2="9.34556" y2="6" gradientUnits="userSpaceOnUse">
<stop stop-color="#00D95F"/>
<stop offset="1" stop-color="#6EE7A3"/>
</linearGradient>
<clipPath id="clip0_2252_13703">
<rect width="18" height="18" fill="white" transform="translate(11.5 11)"/>
</clipPath>
</defs>
</svg>
