<svg width="41" height="40" viewBox="0 0 41 40" fill="none" xmlns="http://www.w3.org/2000/svg">
<g id="Social Media / Whatsapp">
<rect id="Rectangle" x="0.5" width="40" height="40" rx="12" fill="url(#paint0_linear_2252_13696)"/>
<g id="Rectangle_2" opacity="0.25" filter="url(#filter0_f_2252_13696)">
<rect x="6.52734" y="20" width="27.2489" height="17.0306" rx="8.51528" fill="url(#paint1_linear_2252_13696)"/>
</g>
<rect id="Rectangle_3" x="6.5" y="6" width="28" height="28" rx="12" fill="url(#paint2_linear_2252_13696)"/>
<rect id="Rectangle_4" x="6.5" y="6" width="28" height="28" rx="12" fill="url(#paint3_radial_2252_13696)"/>
<path id="Vector" d="M17.6566 20.2342C17.6566 18.5343 19.0343 17.1559 20.7342 17.1559C22.4341 17.1559 23.8125 18.5343 23.8125 20.2342C23.8125 21.9341 22.4341 23.3125 20.7342 23.3125C19.0343 23.3125 17.6566 21.9341 17.6566 20.2342ZM15.9925 20.2342C15.9925 22.853 18.1154 24.9758 20.7342 24.9758C23.353 24.9758 25.4758 22.853 25.4758 20.2342C25.4758 17.6154 23.353 15.4925 20.7342 15.4925C18.1154 15.4925 15.9926 17.6152 15.9926 20.2342M24.5555 15.3045C24.5554 15.5237 24.6203 15.738 24.742 15.9202C24.8637 16.1025 25.0367 16.2446 25.2391 16.3285C25.4416 16.4125 25.6644 16.4345 25.8793 16.3919C26.0943 16.3492 26.2918 16.2437 26.4468 16.0888C26.6019 15.9339 26.7075 15.7365 26.7503 15.5216C26.7932 15.3066 26.7713 15.0838 26.6875 14.8813C26.6037 14.6788 26.4618 14.5057 26.2796 14.3839C26.0974 14.262 25.8832 14.197 25.664 14.1969H25.6636C25.3698 14.197 25.0881 14.3137 24.8804 14.5214C24.6726 14.7291 24.5557 15.0108 24.5555 15.3045ZM17.0036 27.7506C16.1033 27.7096 15.6139 27.5597 15.2887 27.433C14.8576 27.2651 14.55 27.0652 14.2266 26.7423C13.9032 26.4193 13.703 26.112 13.5359 25.6808C13.4091 25.3558 13.2591 24.8663 13.2182 23.966C13.1735 22.9927 13.1645 22.7003 13.1645 20.2343C13.1645 17.7683 13.1742 17.4768 13.2182 16.5026C13.2592 15.6023 13.4103 15.1138 13.5359 14.7878C13.7037 14.3567 13.9036 14.049 14.2266 13.7256C14.5496 13.4022 14.8569 13.202 15.2887 13.0349C15.6138 12.9081 16.1033 12.7582 17.0036 12.7173C17.9769 12.6725 18.2693 12.6636 20.7342 12.6636C23.199 12.6636 23.4917 12.6731 24.4659 12.7174C25.3662 12.7584 25.8547 12.9095 26.1807 13.0351C26.6118 13.2022 26.9194 13.4028 27.2429 13.7258C27.5663 14.0488 27.7657 14.3568 27.9336 14.7879C28.0603 15.113 28.2103 15.6025 28.2512 16.5028C28.296 17.4769 28.3049 17.7685 28.3049 20.2345C28.3049 22.7004 28.296 22.992 28.2512 23.9662C28.2102 24.8665 28.0595 25.3558 27.9336 25.681C27.7657 26.1121 27.5658 26.4197 27.2429 26.7424C26.9199 27.0651 26.6118 27.2653 26.1807 27.4331C25.8557 27.5599 25.3662 27.7099 24.4659 27.7508C23.4925 27.7955 23.2001 27.8045 20.7342 27.8045C18.2682 27.8045 17.9766 27.7955 17.0036 27.7508M16.9271 11.0559C15.9441 11.1007 15.2723 11.2566 14.6857 11.4848C14.0785 11.7206 13.5639 12.0368 13.0499 12.5499C12.536 13.0631 12.2206 13.5778 11.9848 14.1857C11.7566 14.7727 11.6007 15.4441 11.5559 16.4271C11.5104 17.4117 11.5 17.7265 11.5 20.2342C11.5 22.7419 11.5104 23.0566 11.5559 24.0412C11.6007 25.0243 11.7566 25.6956 11.9848 26.2826C12.2206 26.8898 12.5361 27.4055 13.0499 27.9184C13.5638 28.4313 14.0778 28.7471 14.6857 28.9835C15.2735 29.2118 15.9441 29.3676 16.9271 29.4124C17.9122 29.4572 18.2265 29.4683 20.7342 29.4683C23.2419 29.4683 23.5566 29.4579 24.5412 29.4124C25.5243 29.3676 26.1956 29.2118 26.7826 28.9835C27.3898 28.7471 27.9045 28.4315 28.4184 27.9184C28.9323 27.4053 29.2471 26.8898 29.4835 26.2826C29.7118 25.6956 29.8684 25.0243 29.9124 24.0412C29.9572 23.0559 29.9676 22.7419 29.9676 20.2342C29.9676 17.7265 29.9572 17.4117 29.9124 16.4271C29.8676 15.444 29.7118 14.7723 29.4835 14.1857C29.2471 13.5785 28.9315 13.0639 28.4184 12.5499C27.9053 12.036 27.3898 11.7206 26.7834 11.4848C26.1956 11.2566 25.5243 11.1 24.542 11.0559C23.5572 11.0109 23.2426 11 20.7353 11C18.2279 11 17.9126 11.0104 16.9275 11.0559" fill="white"/>
</g>
<defs>
<filter id="filter0_f_2252_13696" x="4.34334" y="17.816" width="31.618" height="21.3985" filterUnits="userSpaceOnUse" color-interpolation-filters="sRGB">
<feFlood flood-opacity="0" result="BackgroundImageFix"/>
<feBlend mode="normal" in="SourceGraphic" in2="BackgroundImageFix" result="shape"/>
<feGaussianBlur stdDeviation="1.092" result="effect1_foregroundBlur_2252_13696"/>
</filter>
<linearGradient id="paint0_linear_2252_13696" x1="3.86245" y1="2.62009" x2="33.5568" y2="40" gradientUnits="userSpaceOnUse">
<stop stop-color="#FBFBFC"/>
<stop offset="1" stop-color="#DBDDE8"/>
</linearGradient>
<linearGradient id="paint1_linear_2252_13696" x1="22.035" y1="37.5385" x2="16.4808" y2="17.9617" gradientUnits="userSpaceOnUse">
<stop stop-color="#A83B95"/>
<stop offset="1" stop-color="#F98C23"/>
</linearGradient>
<linearGradient id="paint2_linear_2252_13696" x1="35.5" y1="8.5" x2="10.5" y2="32.5" gradientUnits="userSpaceOnUse">
<stop offset="0.111662" stop-color="#D82D7E"/>
<stop offset="1" stop-color="#FA8F21"/>
</linearGradient>
<radialGradient id="paint3_radial_2252_13696" cx="0" cy="0" r="1" gradientUnits="userSpaceOnUse" gradientTransform="translate(25.8946 32.4875) scale(31.284)">
<stop offset="0.64" stop-color="#8C3AAA" stop-opacity="0"/>
<stop offset="1" stop-color="#8C3AAA"/>
</radialGradient>
</defs>
</svg>
