<svg width="41" height="40" viewBox="0 0 41 40" fill="none" xmlns="http://www.w3.org/2000/svg">
<rect x="0.5" width="40" height="40" rx="12" fill="url(#paint0_linear_2252_13697)"/>
<g opacity="0.25" filter="url(#filter0_f_2252_13697)">
<rect x="6.5" y="20" width="27" height="17" rx="8.5" fill="url(#paint1_linear_2252_13697)"/>
</g>
<rect x="6.5" y="6" width="28" height="28" rx="12" fill="url(#paint2_linear_2252_13697)"/>
<g filter="url(#filter1_i_2252_13697)">
<path d="M13.6802 19.2266C13.6802 19.2266 20.7566 16.0883 23.2108 14.9832C24.1516 14.5412 27.3421 13.1267 27.3421 13.1267C27.3421 13.1267 28.8147 12.5079 28.692 14.0107C28.651 14.6296 28.3238 16.7955 27.9966 19.1382C27.5057 22.4534 26.974 26.0779 26.974 26.0779C26.974 26.0779 26.8922 27.0946 26.1968 27.2714C25.5014 27.4482 24.3561 26.6526 24.1516 26.4757C23.9879 26.3431 21.0838 24.354 20.0203 23.3816C19.7339 23.1164 19.4067 22.586 20.0612 21.9671C21.5337 20.5085 23.2926 18.6962 24.3561 17.5469C24.847 17.0165 25.3378 15.7788 23.2926 17.2817C20.3884 19.4476 17.5251 21.4809 17.5251 21.4809C17.5251 21.4809 16.8707 21.9229 15.6435 21.5251C14.4164 21.1273 12.9847 20.5969 12.9847 20.5969C12.9847 20.5969 12.0031 19.9338 13.6802 19.2266Z" fill="white"/>
</g>
<defs>
<filter id="filter0_f_2252_13697" x="4.316" y="17.816" width="31.368" height="21.368" filterUnits="userSpaceOnUse" color-interpolation-filters="sRGB">
<feFlood flood-opacity="0" result="BackgroundImageFix"/>
<feBlend mode="normal" in="SourceGraphic" in2="BackgroundImageFix" result="shape"/>
<feGaussianBlur stdDeviation="1.092" result="effect1_foregroundBlur_2252_13697"/>
</filter>
<filter id="filter1_i_2252_13697" x="11.5" y="11" width="18" height="18.2" filterUnits="userSpaceOnUse" color-interpolation-filters="sRGB">
<feFlood flood-opacity="0" result="BackgroundImageFix"/>
<feBlend mode="normal" in="SourceGraphic" in2="BackgroundImageFix" result="shape"/>
<feColorMatrix in="SourceAlpha" type="matrix" values="0 0 0 0 0 0 0 0 0 0 0 0 0 0 0 0 0 0 127 0" result="hardAlpha"/>
<feOffset dy="0.2"/>
<feGaussianBlur stdDeviation="0.5"/>
<feComposite in2="hardAlpha" operator="arithmetic" k2="-1" k3="1"/>
<feColorMatrix type="matrix" values="0 0 0 0 0 0 0 0 0 0 0 0 0 0 0 0 0 0 0.1 0"/>
<feBlend mode="normal" in2="shape" result="effect1_innerShadow_2252_13697"/>
</filter>
<linearGradient id="paint0_linear_2252_13697" x1="3.86245" y1="2.62009" x2="33.5568" y2="40" gradientUnits="userSpaceOnUse">
<stop stop-color="#FBFBFC"/>
<stop offset="1" stop-color="#DBDDE8"/>
</linearGradient>
<linearGradient id="paint1_linear_2252_13697" x1="8.87808" y1="21.267" x2="21.2366" y2="42.491" gradientUnits="userSpaceOnUse">
<stop stop-color="#0088CC"/>
<stop offset="1" stop-color="#0083C5"/>
</linearGradient>
<linearGradient id="paint2_linear_2252_13697" x1="8.96615" y1="8.08675" x2="32.2998" y2="33.3174" gradientUnits="userSpaceOnUse">
<stop stop-color="#0088CC"/>
<stop offset="1" stop-color="#0083C5"/>
</linearGradient>
</defs>
</svg>
