<svg width="41" height="43" viewBox="0 0 41 43" fill="none" xmlns="http://www.w3.org/2000/svg">
<rect x="0.5" width="40" height="40" rx="12" fill="url(#paint0_linear_2252_13711)"/>
<g opacity="0.25" filter="url(#filter0_f_2252_13711)">
<rect x="6.5" y="20" width="27" height="17" rx="8.5" fill="url(#paint1_linear_2252_13711)"/>
</g>
<rect x="6.5" y="6" width="28" height="28" rx="14" fill="url(#paint2_linear_2252_13711)"/>
<g filter="url(#filter1_i_2252_13711)">
<path fill-rule="evenodd" clip-rule="evenodd" d="M28.3321 16.8035C28.4433 16.4556 28.3321 16.2 27.8027 16.2H26.0523C25.6073 16.2 25.4021 16.4208 25.2908 16.6643C25.2908 16.6643 24.4006 18.6996 23.1396 20.0217C22.7317 20.4044 22.5462 20.5262 22.3237 20.5262C22.2124 20.5262 22.0514 20.4044 22.0514 20.0565V16.8035C22.0514 16.386 21.9222 16.2 21.5513 16.2H18.8006C18.5225 16.2 18.3552 16.3937 18.3552 16.5774C18.3552 16.9732 18.9857 17.0644 19.0507 18.1778V20.5958C19.0507 21.1259 18.9486 21.2221 18.7261 21.2221C18.1327 21.2221 16.6893 19.1776 15.8332 16.8383C15.6654 16.3836 15.4971 16.2 15.0498 16.2H13.2994C12.7992 16.2 12.6992 16.4208 12.6992 16.6643C12.6992 17.0992 13.2926 19.2563 15.4623 22.1092C16.9087 24.0575 18.9467 25.1136 20.8011 25.1136C21.9137 25.1136 22.0514 24.8791 22.0514 24.475V23.0025C22.0514 22.5334 22.1568 22.4397 22.5091 22.4397C22.7688 22.4397 23.2138 22.5615 24.2523 23.5009C25.4391 24.6142 25.6348 25.1136 26.3024 25.1136H28.0528C28.5529 25.1136 28.803 24.8791 28.6587 24.4162C28.5009 23.9548 27.9342 23.2854 27.1823 22.4919C26.7743 22.0396 26.1624 21.5526 25.9769 21.309C25.7173 20.9959 25.7915 20.8567 25.9769 20.5784C25.9769 20.5784 28.1095 17.7603 28.3321 16.8035Z" fill="white"/>
</g>
<defs>
<filter id="filter0_f_2252_13711" x="1.04" y="14.54" width="37.92" height="27.92" filterUnits="userSpaceOnUse" color-interpolation-filters="sRGB">
<feFlood flood-opacity="0" result="BackgroundImageFix"/>
<feBlend mode="normal" in="SourceGraphic" in2="BackgroundImageFix" result="shape"/>
<feGaussianBlur stdDeviation="2.73" result="effect1_foregroundBlur_2252_13711"/>
</filter>
<filter id="filter1_i_2252_13711" x="11.5" y="11" width="18" height="18.5" filterUnits="userSpaceOnUse" color-interpolation-filters="sRGB">
<feFlood flood-opacity="0" result="BackgroundImageFix"/>
<feBlend mode="normal" in="SourceGraphic" in2="BackgroundImageFix" result="shape"/>
<feColorMatrix in="SourceAlpha" type="matrix" values="0 0 0 0 0 0 0 0 0 0 0 0 0 0 0 0 0 0 127 0" result="hardAlpha"/>
<feOffset dy="0.5"/>
<feGaussianBlur stdDeviation="1.25"/>
<feComposite in2="hardAlpha" operator="arithmetic" k2="-1" k3="1"/>
<feColorMatrix type="matrix" values="0 0 0 0 0 0 0 0 0 0 0 0 0 0 0 0 0 0 0.1 0"/>
<feBlend mode="normal" in2="shape" result="effect1_innerShadow_2252_13711"/>
</filter>
<linearGradient id="paint0_linear_2252_13711" x1="3.86245" y1="2.62009" x2="33.5568" y2="40" gradientUnits="userSpaceOnUse">
<stop stop-color="#FBFBFC"/>
<stop offset="1" stop-color="#DBDDE8"/>
</linearGradient>
<linearGradient id="paint1_linear_2252_13711" x1="21.866" y1="37.507" x2="16.2869" y2="17.987" gradientUnits="userSpaceOnUse">
<stop offset="0.0729167" stop-color="#1568C8"/>
<stop offset="0.927083" stop-color="#3F98FF"/>
</linearGradient>
<linearGradient id="paint2_linear_2252_13711" x1="22.4351" y1="34.835" x2="9.34556" y2="6" gradientUnits="userSpaceOnUse">
<stop offset="0.0729167" stop-color="#1568C8"/>
<stop offset="0.927083" stop-color="#3F98FF"/>
</linearGradient>
</defs>
</svg>
